<svg width="128" height="170" viewBox="0 0 128 170" fill="none" xmlns="http://www.w3.org/2000/svg">
<path d="M107.49 4.14536H0V163.755H107.49V4.14536Z" fill="#535461"/>
<path d="M78.1968 167.887L0 163.757V4.14651L78.1968 0.016571V167.887Z" fill="#F6A821"/>
<path d="M71.6603 92.5747C72.1951 92.5747 72.6286 92.1396 72.6286 91.6029C72.6286 91.0662 72.1951 90.6312 71.6603 90.6312C71.1254 90.6312 70.6919 91.0662 70.6919 91.6029C70.6919 92.1396 71.1254 92.5747 71.6603 92.5747Z" fill="#535461"/>
<path d="M71.6603 91.7479L72.3316 92.9147L73.0027 94.0813H71.6603H70.3179L70.989 92.9147L71.6603 91.7479Z" fill="#535461"/>
<path d="M81.5861 167.885L76.7968 167.87L76.9863 0.0152893H81.5861V167.885Z" fill="#F6A821"/>
<g opacity="0.1">
<path opacity="0.1" d="M81.6387 167.87H76.7968L77.0388 0H81.6387V167.87Z" fill="white"/>
</g>
<path opacity="0.1" d="M71.6602 87.7159C73.3984 87.7159 74.8074 86.3019 74.8074 84.5577C74.8074 82.8135 73.3984 81.3995 71.6602 81.3995C69.922 81.3995 68.5129 82.8135 68.5129 84.5577C68.5129 86.3019 69.922 87.7159 71.6602 87.7159Z" fill="black"/>
<path d="M71.6602 87.23C73.3984 87.23 74.8074 85.8161 74.8074 84.0718C74.8074 82.3276 73.3984 80.9137 71.6602 80.9137C69.922 80.9137 68.5129 82.3276 68.5129 84.0718C68.5129 85.8161 69.922 87.23 71.6602 87.23Z" fill="#535461"/>
<path d="M112.143 32.1463C117.424 32.1463 121.705 28.122 121.705 23.1576C121.705 18.1933 117.424 14.1689 112.143 14.1689C106.861 14.1689 102.58 18.1933 102.58 23.1576C102.58 28.122 106.861 32.1463 112.143 32.1463Z" fill="#2F2E41"/>
<path d="M84.3017 79.1548L81.8808 82.5559C81.8808 82.5559 70.2602 84.9853 74.6179 88.6293C78.9756 92.2734 85.2701 85.2282 85.2701 85.2282L88.6594 80.8553L84.3017 79.1548Z" fill="#FFB8B8"/>
<path d="M96.8907 40.5277C96.8907 40.5277 93.7435 40.5277 93.0172 44.9006C92.2909 49.2735 91.5646 63.8497 91.5646 63.8497C91.5646 63.8497 81.3966 77.2113 83.0913 78.9119C84.7859 80.6124 86.7227 83.7706 87.9332 83.2847C89.1437 82.7989 99.5538 68.4655 99.5538 68.4655L96.8907 40.5277Z" fill="#F6A821"/>
<path opacity="0.1" d="M96.8907 40.5277C96.8907 40.5277 93.7435 40.5277 93.0172 44.9006C92.2909 49.2735 91.5646 63.8497 91.5646 63.8497C91.5646 63.8497 81.3966 77.2113 83.0913 78.9119C84.7859 80.6124 86.7227 83.7706 87.9332 83.2847C89.1437 82.7989 99.5538 68.4655 99.5538 68.4655L96.8907 40.5277Z" fill="black"/>
<path d="M106.575 28.1379C106.575 28.1379 106.332 37.6124 103.427 38.0983C100.522 38.5842 101.491 41.7424 101.491 41.7424C101.491 41.7424 110.932 47.33 117.227 41.7424L118.437 38.8271C118.437 38.8271 114.079 35.6689 116.016 31.2961L106.575 28.1379Z" fill="#FFB8B8"/>
<path d="M90.3541 86.4429C90.3541 86.4429 76.0705 113.166 81.3966 121.426C86.7227 129.686 94.7118 146.691 95.9223 146.691C97.1328 146.691 103.911 143.29 103.427 141.104C102.943 138.917 95.6802 122.641 93.7435 121.183C91.8067 119.725 92.7751 115.838 93.0172 115.595C93.2593 115.353 101.248 102.477 101.248 102.477C101.248 102.477 101.006 122.884 101.975 126.042C102.943 129.2 101.733 151.793 102.943 152.765C104.154 153.737 109.722 155.437 110.69 153.98C111.659 152.522 114.564 130.415 112.627 125.313L116.258 90.3299L90.3541 86.4429Z" fill="#2F2E41"/>
<path d="M103.427 151.307L97.3749 162.482C97.3749 162.482 88.6594 168.799 94.7118 169.771C100.764 170.742 104.396 168.313 104.396 168.313L109.722 164.426V153.251L103.427 151.307Z" fill="#2F2E41"/>
<path d="M95.196 144.991L98.3433 152.522C98.3433 152.522 99.5538 155.68 98.3433 156.409C97.1328 157.138 93.7435 161.511 95.9223 161.997C96.3606 162.083 96.8061 162.127 97.2527 162.129C99.0671 162.16 100.869 161.822 102.55 161.136C104.23 160.449 105.755 159.429 107.033 158.136L108.995 156.166C108.995 156.166 102.272 140.631 102.366 140.746C102.459 140.861 95.196 144.991 95.196 144.991Z" fill="#2F2E41"/>
<path d="M112.627 33.9684C117.173 33.9684 120.858 30.2703 120.858 25.7085C120.858 21.1467 117.173 17.4486 112.627 17.4486C108.081 17.4486 104.396 21.1467 104.396 25.7085C104.396 30.2703 108.081 33.9684 112.627 33.9684Z" fill="#FFB8B8"/>
<path d="M117.348 37.248L114.806 39.7989C114.806 39.7989 107.059 42.7141 103.427 39.7989C103.427 39.7989 104.759 37.0051 104.759 37.248C104.759 37.491 94.2277 39.0701 93.2593 43.4429C92.2909 47.8158 93.9856 55.3469 93.9856 55.3469C93.9856 55.3469 87.2069 87.4147 89.8699 88.1435C92.533 88.8723 117.469 94.9457 117.227 90.3299C116.985 85.7141 119.163 66.765 119.163 66.765L127.637 50.4881C127.637 50.4881 126.426 45.1435 123.521 43.4429C120.616 41.7424 117.348 37.248 117.348 37.248Z" fill="#F6A821"/>
<path d="M106.575 84.7424L103.427 86.6859C103.427 86.6859 91.3225 94.9458 97.617 96.4034C103.912 97.861 107.543 90.5729 107.543 90.5729L109.964 87.6576L106.575 84.7424Z" fill="#FFB8B8"/>
<path opacity="0.1" d="M124.49 49.0305L126.669 51.217C126.669 51.217 128.121 71.6237 125.216 75.7537C122.311 79.8836 108.996 91.0587 108.269 90.3299C107.543 89.6011 102.943 85.957 103.912 85.4712C104.88 84.9853 117.755 71.4854 117.755 71.4854L116.743 52.6746L124.49 49.0305Z" fill="black"/>
<path d="M125.458 48.3017L127.637 50.4881C127.637 50.4881 129.089 70.8949 126.184 75.0248C123.279 79.1548 109.964 90.3299 109.238 89.6011C108.511 88.8723 103.912 85.2282 104.88 84.7424C105.848 84.2565 118.724 70.7566 118.724 70.7566L117.711 51.9458L125.458 48.3017Z" fill="#F6A821"/>
<path d="M109.223 13.9759C109.223 13.9759 106.425 12.9549 102.609 15.1245L104.644 15.635C104.644 15.635 101.592 15.8902 101.21 19.9742H102.609C102.609 19.9742 101.719 23.5478 102.609 24.5688L103.182 23.4839L104.835 26.8022L105.216 25.1431L105.98 25.3983L106.488 22.7182C106.488 22.7182 107.76 24.6326 108.778 24.7602V23.1011C108.778 23.1011 111.576 26.2917 112.466 26.1641L111.194 24.3773L112.975 24.7602L112.212 23.4839L116.79 24.7602L115.773 23.4839L118.952 24.5049L120.478 25.1431C120.478 25.1431 122.64 20.1657 119.588 16.7198C116.536 13.2739 112.084 12.5082 109.223 13.9759Z" fill="#2F2E41"/>
</svg>
