<svg width="207" height="50" viewBox="0 0 207 50" fill="none" xmlns="http://www.w3.org/2000/svg">
<path d="M56.2587 39.6152V46H25.5062V4.99661H55.4386V11.3814H33.1211V22.0423H52.9199V28.31H33.1211V39.6152H56.2587ZM71.6666 46.41C69.1283 46.41 66.6485 46.0781 64.2274 45.4142C61.8062 44.7504 59.8732 43.9108 58.4283 42.8955L61.24 37.3307C62.6458 38.2679 64.325 39.0294 66.2775 39.6152C68.2691 40.1619 70.2217 40.4353 72.1352 40.4353C76.5089 40.4353 78.6957 39.2833 78.6957 36.9793C78.6957 35.8858 78.1295 35.1243 76.997 34.6948C75.9036 34.2652 74.1268 33.8552 71.6666 33.4647C69.0892 33.0742 66.9805 32.6251 65.3403 32.1174C63.7392 31.6098 62.3334 30.7311 61.1228 29.4815C59.9513 28.1928 59.3655 26.416 59.3655 24.151C59.3655 21.1832 60.5956 18.8206 63.0558 17.0633C65.5551 15.267 68.9135 14.3688 73.131 14.3688C75.2788 14.3688 77.4266 14.6226 79.5744 15.1303C81.7222 15.5989 83.4794 16.2433 84.8462 17.0633L82.0346 22.6281C79.3791 21.066 76.3917 20.285 73.0724 20.285C70.9246 20.285 69.2845 20.6169 68.152 21.2808C67.0586 21.9056 66.5118 22.7452 66.5118 23.7996C66.5118 24.9711 67.0976 25.8107 68.2691 26.3184C69.4797 26.787 71.3346 27.2361 73.8339 27.6656C76.3331 28.0561 78.3833 28.5052 79.9844 29.0129C81.5855 29.5205 82.9523 30.3797 84.0847 31.5902C85.2563 32.8008 85.842 34.5191 85.842 36.7449C85.842 39.6738 84.5729 42.0168 82.0346 43.7741C79.4963 45.5314 76.0403 46.41 71.6666 46.41ZM109.193 44.3013C108.334 45.0042 107.28 45.5314 106.03 45.8828C104.82 46.2343 103.531 46.41 102.164 46.41C98.7277 46.41 96.0723 45.5119 94.1978 43.7155C92.3234 41.9192 91.3862 39.3028 91.3862 35.8663V20.8122H86.2315V14.9546H91.3862V7.80827H98.7082V14.9546H107.085V20.8122H98.7082V35.6906C98.7082 37.2136 99.0792 38.3851 99.8212 39.2052C100.563 39.9862 101.637 40.3767 103.043 40.3767C104.683 40.3767 106.05 39.9471 107.143 39.088L109.193 44.3013ZM113.459 14.7203H120.781V46H113.459V14.7203ZM117.15 9.56556C115.822 9.56556 114.709 9.15552 113.811 8.33546C112.913 7.47634 112.464 6.42196 112.464 5.17234C112.464 3.92271 112.913 2.88786 113.811 2.06779C114.709 1.20868 115.822 0.779118 117.15 0.779118C118.477 0.779118 119.59 1.18915 120.489 2.00922C121.387 2.79024 121.836 3.78603 121.836 4.99661C121.836 6.28529 121.387 7.37871 120.489 8.27688C119.629 9.136 118.516 9.56556 117.15 9.56556ZM128.634 2.5364H135.956V46H128.634V2.5364ZM174.093 14.7203V46H167.123V42.0168C165.951 43.4226 164.487 44.5161 162.729 45.2971C160.972 46.0391 159.078 46.41 157.047 46.41C152.869 46.41 149.569 45.258 147.148 42.954C144.766 40.611 143.575 37.155 143.575 32.586V14.7203H150.897V31.5902C150.897 34.4019 151.522 36.5106 152.771 37.9165C154.06 39.2833 155.876 39.9666 158.219 39.9666C160.835 39.9666 162.905 39.1661 164.428 37.565C165.99 35.9249 166.771 33.5818 166.771 30.5359V14.7203H174.093ZM191.588 46.41C189.049 46.41 186.57 46.0781 184.149 45.4142C181.727 44.7504 179.794 43.9108 178.35 42.8955L181.161 37.3307C182.567 38.2679 184.246 39.0294 186.199 39.6152C188.19 40.1619 190.143 40.4353 192.056 40.4353C196.43 40.4353 198.617 39.2833 198.617 36.9793C198.617 35.8858 198.051 35.1243 196.918 34.6948C195.825 34.2652 194.048 33.8552 191.588 33.4647C189.01 33.0742 186.902 32.6251 185.262 32.1174C183.66 31.6098 182.255 30.7311 181.044 29.4815C179.872 28.1928 179.287 26.416 179.287 24.151C179.287 21.1832 180.517 18.8206 182.977 17.0633C185.476 15.267 188.835 14.3688 193.052 14.3688C195.2 14.3688 197.348 14.6226 199.496 15.1303C201.643 15.5989 203.401 16.2433 204.767 17.0633L201.956 22.6281C199.3 21.066 196.313 20.285 192.994 20.285C190.846 20.285 189.206 20.6169 188.073 21.2808C186.98 21.9056 186.433 22.7452 186.433 23.7996C186.433 24.9711 187.019 25.8107 188.19 26.3184C189.401 26.787 191.256 27.2361 193.755 27.6656C196.254 28.0561 198.304 28.5052 199.906 29.0129C201.507 29.5205 202.873 30.3797 204.006 31.5902C205.177 32.8008 205.763 34.5191 205.763 36.7449C205.763 39.6738 204.494 42.0168 201.956 43.7741C199.417 45.5314 195.961 46.41 191.588 46.41Z" fill="#F6A821"/>
<path d="M19.6979 40.7901C19.4085 45.4294 15.5741 49.1023 10.8857 49.1023C6.19721 49.1023 2.36286 45.4294 2.07349 40.7901H19.6979Z" fill="#F6A821"/>
<path d="M20.1776 40.7901H1.59376C0.713557 40.7901 6.10352e-05 40.0924 6.10352e-05 39.2316C6.10352e-05 38.3708 0.713557 37.6731 1.59376 37.6731H20.1776C21.0578 37.6731 21.7713 38.3708 21.7713 39.2316C21.7713 40.0924 21.0578 40.7901 20.1776 40.7901Z" fill="#F6A821"/>
<path d="M19.3523 30.7471V23.8195L5.52924 37.6731H12.4415L19.3523 30.7471Z" fill="#F6A821"/>
<path d="M19.3523 13.4293H15.8943L2.07355 27.2811V34.2097L19.3523 16.8919V13.4293Z" fill="#F6A821"/>
<path d="M2.07355 13.4292V20.356L8.98507 13.4292H2.07355Z" fill="#F6A821"/>
<path d="M20.1776 10.3121H1.5937C0.713496 10.3121 0 11.0099 0 11.8707C0 12.7315 0.713496 13.4292 1.5937 13.4292H20.1776C21.0578 13.4292 21.7713 12.7315 21.7713 11.8707C21.7713 11.0099 21.0578 10.3121 20.1776 10.3121Z" fill="#F6A821"/>
<path d="M19.6979 10.3122C19.4085 5.6729 15.5741 2 10.8857 2C6.19721 2 2.36286 5.6729 2.07349 10.3122H19.6979Z" fill="#F6A821"/>
</svg>
