<svg width="198" height="47" viewBox="0 0 198 47" fill="none" xmlns="http://www.w3.org/2000/svg">
<path d="M1.80356 14.7183H9.12606V46H1.80356V14.7183ZM5.4941 9.56324C4.16629 9.56324 3.05327 9.15318 2.15504 8.33306C1.25681 7.47388 0.8077 6.41944 0.8077 5.16974C0.8077 3.92003 1.25681 2.88512 2.15504 2.065C3.05327 1.20582 4.16629 0.776238 5.4941 0.776238C6.82191 0.776238 7.93493 1.1863 8.83316 2.00642C9.73139 2.78748 10.1805 3.78334 10.1805 4.994C10.1805 6.28276 9.73139 7.37625 8.83316 8.27448C7.97399 9.13365 6.86097 9.56324 5.4941 9.56324ZM48.4369 39.6148V46H17.6824V4.994H47.6168V11.3792H25.2978V22.0408H45.0978V28.3088H25.2978V39.6148H48.4369ZM63.8457 46.4101C61.3073 46.4101 58.8274 46.0781 56.4061 45.4142C53.9848 44.7503 52.0516 43.9106 50.6066 42.8953L53.4185 37.3302C54.8244 38.2674 56.5037 39.029 58.4564 39.6148C60.4481 40.1615 62.4008 40.4349 64.3144 40.4349C68.6883 40.4349 70.8753 39.2828 70.8753 36.9787C70.8753 35.8852 70.3091 35.1236 69.1765 34.6941C68.083 34.2645 66.3061 33.8544 63.8457 33.4639C61.2682 33.0733 59.1593 32.6242 57.5191 32.1165C55.9179 31.6088 54.512 30.7301 53.3013 29.4804C52.1297 28.1917 51.5439 26.4148 51.5439 24.1497C51.5439 21.1816 52.7741 18.8189 55.2345 17.0615C57.7339 15.265 61.0925 14.3668 65.3102 14.3668C67.4582 14.3668 69.6061 14.6206 71.754 15.1283C73.902 15.597 75.6594 16.2414 77.0262 17.0615L74.2144 22.6266C71.5588 21.0644 68.5712 20.2834 65.2517 20.2834C63.1037 20.2834 61.4635 20.6153 60.3309 21.2792C59.2374 21.9041 58.6907 22.7437 58.6907 23.7982C58.6907 24.9698 59.2765 25.8094 60.4481 26.3171C61.6587 26.7858 63.5138 27.2349 66.0132 27.6645C68.5126 28.055 70.5629 28.5041 72.1641 29.0118C73.7653 29.5195 75.1321 30.3787 76.2647 31.5893C77.4363 32.8 78.0221 34.5183 78.0221 36.7444C78.0221 39.6734 76.7529 42.0166 74.2144 43.774C71.6759 45.5314 68.2197 46.4101 63.8457 46.4101ZM101.375 44.3012C100.516 45.0041 99.4613 45.5314 98.2116 45.8828C97.0009 46.2343 95.7122 46.4101 94.3453 46.4101C90.9086 46.4101 88.253 45.5118 86.3784 43.7154C84.5039 41.9189 83.5666 39.3024 83.5666 35.8657V20.8106H78.4116V14.9526H83.5666V7.80584H90.8891V14.9526H99.266V20.8106H90.8891V35.6899C90.8891 37.213 91.2601 38.3846 92.0021 39.2047C92.7441 39.9858 93.8181 40.3763 95.224 40.3763C96.8643 40.3763 98.2311 39.9467 99.3246 39.0876L101.375 44.3012ZM105.641 14.7183H112.964V46H105.641V14.7183ZM109.332 9.56324C108.004 9.56324 106.891 9.15318 105.993 8.33306C105.094 7.47388 104.645 6.41944 104.645 5.16974C104.645 3.92003 105.094 2.88512 105.993 2.065C106.891 1.20582 108.004 0.776238 109.332 0.776238C110.66 0.776238 111.773 1.1863 112.671 2.00642C113.569 2.78748 114.018 3.78334 114.018 4.994C114.018 6.28276 113.569 7.37625 112.671 8.27448C111.812 9.13365 110.699 9.56324 109.332 9.56324ZM120.817 2.53364H128.14V46H120.817V2.53364ZM166.279 14.7183V46H159.308V42.0166C158.136 43.4225 156.672 44.516 154.914 45.297C153.157 46.0391 151.263 46.4101 149.232 46.4101C145.053 46.4101 141.753 45.258 139.332 42.9538C136.95 40.6106 135.759 37.1544 135.759 32.5852V14.7183H143.081V31.5893C143.081 34.4012 143.706 36.51 144.956 37.916C146.244 39.2828 148.06 39.9663 150.404 39.9663C153.02 39.9663 155.09 39.1657 156.613 37.5645C158.175 35.9242 158.956 33.581 158.956 30.5349V14.7183H166.279ZM183.775 46.4101C181.236 46.4101 178.756 46.0781 176.335 45.4142C173.914 44.7503 171.98 43.9106 170.535 42.8953L173.347 37.3302C174.753 38.2674 176.433 39.029 178.385 39.6148C180.377 40.1615 182.33 40.4349 184.243 40.4349C188.617 40.4349 190.804 39.2828 190.804 36.9787C190.804 35.8852 190.238 35.1236 189.105 34.6941C188.012 34.2645 186.235 33.8544 183.775 33.4639C181.197 33.0733 179.088 32.6242 177.448 32.1165C175.847 31.6088 174.441 30.7301 173.23 29.4804C172.059 28.1917 171.473 26.4148 171.473 24.1497C171.473 21.1816 172.703 18.8189 175.163 17.0615C177.663 15.265 181.021 14.3668 185.239 14.3668C187.387 14.3668 189.535 14.6206 191.683 15.1283C193.831 15.597 195.588 16.2414 196.955 17.0615L194.143 22.6266C191.488 21.0644 188.5 20.2834 185.18 20.2834C183.033 20.2834 181.392 20.6153 180.26 21.2792C179.166 21.9041 178.62 22.7437 178.62 23.7982C178.62 24.9698 179.205 25.8094 180.377 26.3171C181.588 26.7858 183.443 27.2349 185.942 27.6645C188.441 28.055 190.492 28.5041 192.093 29.0118C193.694 29.5195 195.061 30.3787 196.194 31.5893C197.365 32.8 197.951 34.5183 197.951 36.7444C197.951 39.6734 196.682 42.0166 194.143 43.774C191.605 45.5314 188.149 46.4101 183.775 46.4101Z" fill="#F6A821"/>
</svg>
